<?xml version="1.0" ?><svg fill="none" height="30" viewBox="0 0 64 64" width="30" xmlns="http://www.w3.org/2000/svg"><path d="M29 13.5C28.1716 13.5 27.5 14.1716 27.5 15C27.5 15.8284 28.1716 16.5 29 16.5H35C35.8284 16.5 36.5 15.8284 36.5 15C36.5 14.1716 35.8284 13.5 35 13.5H29Z" fill="black"/><path d="M14.5 19C14.5 18.1716 15.1716 17.5 16 17.5H48C48.8284 17.5 49.5 18.1716 49.5 19C49.5 19.8284 48.8284 20.5 48 20.5H16C15.1716 20.5 14.5 19.8284 14.5 19Z" fill="black"/><path d="M17.5 22V44C17.5 47.5899 20.4101 50.5 24 50.5H40C43.5899 50.5 46.5 47.5899 46.5 44V22H43.5V44C43.5 45.933 41.933 47.5 40 47.5H24C22.067 47.5 20.5 45.933 20.5 44V22H17.5Z" fill="black"/><path d="M36 28.5C36.8284 28.5 37.5 29.1716 37.5 30V39C37.5 39.8284 36.8284 40.5 36 40.5C35.1716 40.5 34.5 39.8284 34.5 39V30C34.5 29.1716 35.1716 28.5 36 28.5Z" fill="black"/><path d="M29.5 30C29.5 29.1716 28.8284 28.5 28 28.5C27.1716 28.5 26.5 29.1716 26.5 30V39C26.5 39.8284 27.1716 40.5 28 40.5C28.8284 40.5 29.5 39.8284 29.5 39V30Z" fill="black"/></svg>